<?xml version="1.0" encoding="UTF-8" standalone="no"?>
<svg
   xmlns:dc="http://purl.org/dc/elements/1.1/"
   xmlns:cc="http://creativecommons.org/ns#"
   xmlns:rdf="http://www.w3.org/1999/02/22-rdf-syntax-ns#"
   xmlns:svg="http://www.w3.org/2000/svg"
   xmlns="http://www.w3.org/2000/svg"
   xmlns:sodipodi="http://sodipodi.sourceforge.net/DTD/sodipodi-0.dtd"
   xmlns:inkscape="http://www.inkscape.org/namespaces/inkscape"
   version="1.1"
   width="5"
   height="13"
   id="svg4"
   sodipodi:docname="bullet-circle-icon.svg"
   inkscape:version="0.92.3 (2405546, 2018-03-11)"
   inkscape:export-filename="\\wsl$\Debian\var\lib\mediawiki\skins\Michigan\images\bullet-circle-icon.png"
   inkscape:export-xdpi="96"
   inkscape:export-ydpi="96">
  <metadata
     id="metadata10">
    <rdf:RDF>
      <cc:Work
         rdf:about="">
        <dc:format>image/svg+xml</dc:format>
        <dc:type
           rdf:resource="http://purl.org/dc/dcmitype/StillImage" />
      </cc:Work>
    </rdf:RDF>
  </metadata>
  <defs
     id="defs8" />
  <sodipodi:namedview
     pagecolor="#ffffff"
     bordercolor="#666666"
     borderopacity="1"
     objecttolerance="10"
     gridtolerance="10"
     guidetolerance="10"
     inkscape:pageopacity="0"
     inkscape:pageshadow="2"
     inkscape:window-width="1368"
     inkscape:window-height="849"
     id="namedview6"
     showgrid="false"
     inkscape:zoom="103.8101"
     inkscape:cx="2.5"
     inkscape:cy="4.4332192"
     inkscape:window-x="-8"
     inkscape:window-y="-8"
     inkscape:window-maximized="1"
     inkscape:current-layer="svg4" />
  <path
     style="fill:#ff7f2a;fill-opacity:1;stroke:none;stroke-width:0.0385319;stroke-miterlimit:4;stroke-dasharray:none;stroke-opacity:1"
     d="M 2.2697719,11.954856 C 1.9902989,11.930587 1.6955802,11.845155 1.4124372,11.706333 1.1631792,11.584125 0.98915599,11.462427 0.79233289,11.272683 0.33157056,10.828493 0.07713996,10.250287 0.05265508,9.5917293 0.0388939,9.2216012 0.09621016,8.8675916 0.21838756,8.568095 0.41010758,8.0981269 0.83676163,7.6160155 1.292025,7.3549042 1.5455896,7.209475 1.8382225,7.1075919 2.1300938,7.063122 2.2731352,7.041328 2.5530708,7.033802 2.7039411,7.047694 3.2844844,7.10115 3.824263,7.3543739 4.234962,7.7659344 c 0.22164,0.2221049 0.3504543,0.4061694 0.5058525,0.7228194 0.1802898,0.3673707 0.1780751,0.3547757 0.1778516,1.0114623 -1.686e-4,0.4950151 -8.4e-4,0.5135849 -0.022077,0.6103699 -0.02718,0.123867 -0.070455,0.23522 -0.1618114,0.41636 -0.175332,0.347647 -0.4482037,0.68334 -0.7744183,0.952709 -0.2924469,0.241486 -0.7307589,0.413469 -1.190949,0.4673 -0.1112554,0.01301 -0.3899952,0.01742 -0.499638,0.0079 z"
     id="path4522"
     inkscape:connector-curvature="0" />
  <path
     style="fill:#ff7f2a;fill-opacity:1;stroke:none;stroke-width:0.0385319;stroke-miterlimit:4;stroke-dasharray:none;stroke-opacity:1"
     d="M 2.1737854,11.940773 C 1.7929827,11.891972 1.3212253,11.694198 1.0015848,11.449354 0.8742953,11.351851 0.63741034,11.110838 0.53916568,10.978878 0.29350182,10.648906 0.1466006,10.294698 0.08172712,9.875902 0.0539057,9.6962987 0.05640899,9.2395694 0.0861621,9.0667322 0.17478201,8.551935 0.3874258,8.1538837 0.78602495,7.7566476 0.99066119,7.5527112 1.1751447,7.4163356 1.3979877,7.3042669 1.6634244,7.1707777 1.951064,7.0846915 2.2238794,7.0570899 2.38647,7.0406401 2.7550289,7.0512048 2.8959152,7.0763537 3.2354581,7.1369639 3.5683808,7.2700516 3.8486391,7.4572105 4.007822,7.5635142 4.0971129,7.6369967 4.235242,7.7753674 4.4746266,8.015171 4.6136394,8.2229919 4.7963581,8.6142235 4.909562,8.856612 4.9167795,8.9175383 4.9116169,9.5871856 l -0.00371,0.4813754 -0.025727,0.08938 c -0.1437482,0.499391 -0.6059053,1.115142 -1.0663148,1.420694 -0.2775482,0.184195 -0.677133,0.323353 -1.0423898,0.363018 -0.110491,0.012 -0.5037073,0.01142 -0.5996891,-8.77e-4 z"
     id="path4528"
     inkscape:connector-curvature="0" />
  <path
     style="fill:#ff7f2a;fill-opacity:1;stroke:none;stroke-width:0.0385319;stroke-miterlimit:4;stroke-dasharray:none;stroke-opacity:1"
     d="M 2.1541762,11.937245 C 1.8848717,11.894795 1.6496059,11.817814 1.3869759,11.68621 1.1522932,11.568611 1.0011993,11.462667 0.81571368,11.285655 0.40511996,10.893819 0.1770362,10.454137 0.08084347,9.869029 0.05653394,9.7211623 0.05702886,9.2552253 0.08166498,9.0956311 0.1603457,8.585933 0.37724875,8.1695423 0.7718444,7.7706877 0.98554869,7.5546769 1.1774696,7.4140361 1.4220702,7.2941983 1.6504684,7.1822987 1.8603417,7.1138015 2.1060113,7.0709777 2.2489644,7.0460587 2.7196344,7.0461797 2.8621998,7.0711717 3.4061843,7.1665337 3.8575582,7.3981674 4.2351015,7.7757107 4.3775529,7.9181621 4.5121417,8.0874109 4.59652,8.230204 4.624196,8.27704 4.686845,8.3955547 4.7357395,8.4935702 4.9161479,8.8552206 4.9092219,8.8146309 4.9091503,9.509849 l -5.78e-5,0.54908 -0.025385,0.09151 c -0.1389208,0.500823 -0.6121756,1.129498 -1.0822931,1.437725 -0.2370402,0.155413 -0.5598781,0.275295 -0.9054996,0.336246 -0.1512569,0.02667 -0.6042094,0.03451 -0.741739,0.01283 z"
     id="path4526"
     inkscape:connector-curvature="0" />
  <path
     style="fill:#ff7f2a;fill-opacity:1;stroke:none;stroke-width:0.0385319;stroke-miterlimit:4;stroke-dasharray:none;stroke-opacity:1"
     d="M 2.2071576,11.945175 C 2.0063217,11.924027 1.7215671,11.841995 1.4965213,11.740454 1.1875192,11.601033 0.96578285,11.444977 0.73181157,11.202259 0.3782605,10.83549 0.16618133,10.405636 0.08217354,9.885535 0.05828675,9.7376495 0.05284682,9.3425041 0.07237727,9.1739551 0.12372859,8.73079 0.28451713,8.3490286 0.56991162,7.9926555 0.66881941,7.869149 0.88250723,7.6533675 0.99340281,7.565015 1.3351088,7.2927718 1.7830899,7.1048041 2.1995532,7.0589282 c 0.1398538,-0.015406 0.4684707,-0.012898 0.6019471,0.00459 0.7848623,0.1028516 1.4723382,0.5749324 1.8580831,1.2759214 0.1197353,0.2175872 0.2070038,0.4183379 0.2324095,0.5346301 0.018622,0.085242 0.029941,1.0485923 0.013736,1.1690113 -0.029012,0.215576 -0.1992381,0.573815 -0.4098751,0.862577 -0.193662,0.265491 -0.4538918,0.523497 -0.6801077,0.674295 -0.2649235,0.176601 -0.6369469,0.308753 -1.004993,0.357 -0.1043052,0.01367 -0.5005555,0.01907 -0.6035952,0.0082 z"
     id="path4530"
     inkscape:connector-curvature="0" />
  <path
     style="fill:#ff7f2a;fill-opacity:1;stroke:none;stroke-width:0.22033899;stroke-miterlimit:4;stroke-dasharray:none;stroke-opacity:1"
     d="M 1.8777975,11.888251 C 0.78606193,11.594667 0.05202269,10.646339 0.04680081,9.5227306 0.04343039,8.7975056 0.26012492,8.2728831 0.78044935,7.7465504 1.9601371,6.5532405 3.9740166,6.9091338 4.7240824,8.4434703 c 0.2005952,0.410338 0.2051549,0.4337446 0.2051549,1.0531399 0,0.5990238 -0.00963,0.6538078 -0.1771007,1.0073678 -0.2088119,0.440842 -0.6727303,0.951129 -1.0527307,1.157951 -0.5521964,0.300543 -1.231676,0.384964 -1.8216084,0.226322 z"
     id="path4520"
     inkscape:connector-curvature="0" />
  <path
     style="fill:#ff7f2a;fill-opacity:1;stroke:none;stroke-width:0.0385319;stroke-miterlimit:4;stroke-dasharray:none;stroke-opacity:1"
     d="M 2.1878916,11.946458 C 1.8081434,11.892251 1.4231543,11.746937 1.1261579,11.545708 1.014588,11.470114 0.8700759,11.348903 0.76169424,11.24001 0.31601082,10.792225 0.07965989,10.246441 0.05368365,9.6050666 0.02586969,8.918317 0.2137081,8.3854388 0.6634771,7.8751453 1.0813327,7.4010598 1.6065297,7.1241372 2.2244487,7.0520861 c 0.1587515,-0.018511 0.4728494,-0.013091 0.6233017,0.010755 0.654828,0.103787 1.2304532,0.4485557 1.62251,0.9717967 0.1037301,0.1384386 0.1555704,0.2254329 0.2676785,0.4491962 0.09886,0.1973207 0.1377809,0.2962904 0.1636088,0.4160325 0.015373,0.07127 0.017292,0.1352396 0.017292,0.5762675 0,0.551791 -0.00412,0.606282 -0.058111,0.768323 -0.043021,0.129118 -0.1764581,0.392239 -0.2725084,0.53735 -0.2307084,0.348552 -0.5458622,0.665096 -0.8522643,0.856024 -0.1991511,0.124097 -0.5796351,0.253897 -0.8785725,0.299721 -0.1434222,0.02198 -0.540834,0.02727 -0.6694917,0.0089 z"
     id="path4532"
     inkscape:connector-curvature="0" />
  <path
     style="fill:#ff7f2a;fill-opacity:1;stroke:none;stroke-width:0.0385319;stroke-miterlimit:4;stroke-dasharray:none;stroke-opacity:1"
     d="M 2.1878916,11.946458 C 1.8081434,11.892251 1.4231543,11.746937 1.1261579,11.545708 1.014588,11.470114 0.8700759,11.348903 0.76169424,11.24001 0.31601082,10.792225 0.07965989,10.246441 0.05368365,9.6050666 0.02586969,8.918317 0.2137081,8.3854388 0.6634771,7.8751453 1.0813327,7.4010598 1.6065297,7.1241372 2.2244487,7.0520861 c 0.1587515,-0.018511 0.4728494,-0.013091 0.6233017,0.010755 0.654828,0.103787 1.2304532,0.4485557 1.62251,0.9717967 0.1037301,0.1384386 0.1555704,0.2254329 0.2676785,0.4491962 0.09886,0.1973207 0.1377809,0.2962904 0.1636088,0.4160325 0.015373,0.07127 0.017292,0.1352396 0.017292,0.5762675 0,0.551791 -0.00412,0.606282 -0.058111,0.768323 -0.043021,0.129118 -0.1764581,0.392239 -0.2725084,0.53735 -0.2307084,0.348552 -0.5458622,0.665096 -0.8522643,0.856024 -0.1991511,0.124097 -0.5796351,0.253897 -0.8785725,0.299721 -0.1434222,0.02198 -0.540834,0.02727 -0.6694917,0.0089 z"
     id="path4534"
     inkscape:connector-curvature="0" />
  <circle
     cx="2.5"
     cy="9.5"
     r="2.5"
     fill="784000ff"
     style="fill:#ff7f2a;fill-opacity:1"
     id="circle2" />
  <path
     style="fill:#ff0000;fill-opacity:1;stroke:none;stroke-width:0.0385319;stroke-miterlimit:4;stroke-dasharray:none;stroke-opacity:1"
     d="M 2.3083038,11.990009 C 1.9797123,11.961016 1.6902192,11.881222 1.4028042,11.740424 0.91563469,11.501771 0.52097417,11.113642 0.27639875,10.632659 0.14346418,10.37123 0.06777202,10.129696 0.02415198,9.8277371 0.00358253,9.6853457 9.1694581e-4,9.3416011 0.01933388,9.2064103 0.0991797,8.6202967 0.3310976,8.1443002 0.7330109,7.7416345 0.80999975,7.6645015 0.90983676,7.5729479 0.95487092,7.5381821 1.2979065,7.2733623 1.6845753,7.103751 2.1011949,7.0353499 c 0.6014106,-0.09874 1.2462518,0.036461 1.7532013,0.3675863 0.5430345,0.3546953 0.9297655,0.9017725 1.0739998,1.5193013 0.071222,0.304931 0.085808,0.6703598 0.038546,0.965725 -0.175045,1.0939645 -1.0511935,1.9470885 -2.1432744,2.0869495 -0.1445109,0.01851 -0.3939102,0.02581 -0.5153641,0.0151 z"
     id="path5124"
     inkscape:connector-curvature="0" />
  <path
     style="fill:#ff7f2a;fill-opacity:1;stroke:none;stroke-width:0.0385319;stroke-miterlimit:4;stroke-dasharray:none;stroke-opacity:1"
     d="M 2.3420192,11.994283 C 1.970982,11.962284 1.6861349,11.884401 1.3799028,11.73122 1.1357152,11.609074 0.96497697,11.4871 0.75860469,11.287369 0.00283576,10.55592 -0.20908913,9.4292002 0.22732765,8.462781 0.29111653,8.3215243 0.40204336,8.1351733 0.50430635,7.997472 0.60238429,7.865406 0.85894775,7.6073087 0.98727297,7.5116179 1.6623049,7.0082538 2.5038125,6.8699667 3.2956837,7.1322709 3.4399302,7.180052 3.6899176,7.2970844 3.8158643,7.3757953 4.0374098,7.5142509 4.3134978,7.7612529 4.4635294,7.9552287 4.7416227,8.314775 4.9117869,8.721039 4.9775015,9.1823278 c 0.022341,0.156826 0.022511,0.4675601 3.449e-4,0.6309599 -0.099206,0.7313083 -0.4885638,1.3595543 -1.0926421,1.7630273 -0.322781,0.215591 -0.6758476,0.349032 -1.0573849,0.399639 -0.1124371,0.01491 -0.3997194,0.02575 -0.4858006,0.01833 z m 0.4768323,-0.04718 C 3.1144881,11.908033 3.4652686,11.796469 3.6906356,11.669835 4.0820696,11.449889 4.52408,10.969331 4.742854,10.525854 4.920299,10.166154 4.9281812,10.1219 4.9281049,9.4857665 4.9280471,8.9754733 4.9242184,8.9288244 4.8686497,8.7606911 4.834217,8.6565083 4.6622461,8.3117344 4.5818307,8.1856653 4.2800566,7.7125662 3.8262379,7.3541738 3.2946387,7.1691362 2.4488003,6.8747192 1.5147437,7.0635063 0.86969332,7.6592547 0.41313538,8.0809174 0.15370213,8.5440815 0.07322589,9.0811816 c -0.03496002,0.2333238 -0.03473664,0.5969191 5.0264e-4,0.818129 0.08306406,0.5214234 0.31350936,0.9752424 0.68307792,1.3451924 0.42132845,0.421763 0.95245385,0.666226 1.56594685,0.720762 0.086081,0.0077 0.3830191,-0.0032 0.4960982,-0.01816 z"
     id="path4524"
     inkscape:connector-curvature="0" />
</svg>
